RobotoSerifText-HairlineWdth450.ufo
<glyph name="parenleft" format="2">
  <advance width="256.446"/>
  <unicode hex="0028"/>
  <outline>
    <contour>
      <point x="85.918" y="310.0" type="curve" smooth="yes"/>
      <point x="85.918" y="105.65"/>
      <point x="162.16" y="-48.0"/>
      <point x="238.892" y="-127.0" type="curve"/>
      <point x="238.892" y="-130.0" type="line"/>
      <point x="207.108" y="-130.0" type="line"/>
      <point x="122.066" y="-53.21"/>
      <point x="47.114000000000004" y="109.44"/>
      <point x="47.114000000000004" y="310.0" type="curve" smooth="yes"/>
      <point x="47.114000000000004" y="510.56"/>
      <point x="122.066" y="673.21"/>
      <point x="207.108" y="750.0" type="curve"/>
      <point x="238.892" y="750.0" type="line"/>
      <point x="238.892" y="747.0" type="line"/>
      <point x="162.16" y="668.0"/>
      <point x="85.918" y="514.35"/>
    </contour>
  </outline>
</glyph>
<glyph name="plus" format="2">
  <advance width="452.2"/>
  <unicode hex="002B"/>
  <outline>
    <contour>
      <point x="208.816" y="531.6" type="line"/>
      <point x="208.816" y="150.4" type="line"/>
      <point x="241.38400000000001" y="150.4" type="line"/>
      <point x="241.38400000000001" y="531.6" type="line"/>
    </contour>
    <contour>
      <point x="379.934" y="354.74" type="line"/>
      <point x="72.266" y="354.74" type="line"/>
      <point x="72.266" y="327.26" type="line"/>
      <point x="379.934" y="327.26" type="line"/>
    </contour>
  </outline>
</glyph>
<glyph name="zero" format="2">
  <advance width="452.2"/>
  <unicode hex="0030"/>
  <outline>
    <contour>
      <point x="226.1" y="-11.0" type="curve" smooth="yes"/>
      <point x="336.664366533872" y="-11.0"/>
      <point x="420.29200000000003" y="122.35"/>
      <point x="420.29200000000003" y="304.0" type="curve" smooth="yes"/>
      <point x="420.29200000000003" y="485.65"/>
      <point x="336.644" y="619.0"/>
      <point x="226.1" y="619.0" type="curve" smooth="yes"/>
      <point x="115.556" y="619.0"/>
      <point x="31.908" y="485.65"/>
      <point x="31.908" y="304.0" type="curve" smooth="yes"/>
      <point x="31.908" y="122.35"/>
      <point x="115.535633466128" y="-11.0"/>
    </contour>
    <contour>
      <point x="226.1" y="16.97" type="curve" smooth="yes"/>
      <point x="132.732180645152" y="16.97"/>
      <point x="73.46600000000001" y="134.09"/>
      <point x="73.46600000000001" y="304.0" type="curve" smooth="yes"/>
      <point x="73.46600000000001" y="472.84"/>
      <point x="132.728" y="590.96"/>
      <point x="226.1" y="590.96" type="curve" smooth="yes"/>
      <point x="319.472" y="590.96"/>
      <point x="378.734" y="472.84"/>
      <point x="378.734" y="304.0" type="curve" smooth="yes"/>
      <point x="378.734" y="133.09"/>
      <point x="319.467819354848" y="16.97"/>
    </contour>
  </outline>
</glyph>
<glyph name="one" format="2">
  <advance width="452.2"/>
  <unicode hex="0031"/>
  <outline>
    <contour>
      <point x="270.93" y="61.6" type="curve" smooth="yes"/>
      <point x="270.93" y="609.0" type="line"/>
      <point x="245.94400000000002" y="609.0" type="line"/>
      <point x="218.18311998229" y="556.850358396757"/>
      <point x="161.654" y="535.0"/>
      <point x="90.066" y="533.0" type="curve"/>
      <point x="90.066" y="505.1" type="line"/>
      <point x="155.842" y="503.1"/>
      <point x="223.720379638534" y="528.7141632719025"/>
      <point x="238.882" y="574.75" type="curve"/>
      <point x="242.78199999999998" y="587.75"/>
      <point x="243.446" y="596.45"/>
      <point x="231.734" y="574.45" type="curve"/>
      <point x="231.734" y="61.6" type="line" smooth="yes"/>
      <point x="231.734" y="32.6"/>
      <point x="199.434" y="25.6"/>
      <point x="147.084" y="25.6" type="curve" smooth="yes"/>
      <point x="99.272" y="25.6" type="line"/>
      <point x="99.272" y="0.0" type="line"/>
      <point x="399.738" y="0.0" type="line"/>
      <point x="399.738" y="25.6" type="line"/>
      <point x="363.842" y="25.6" type="line" smooth="yes"/>
      <point x="306.592" y="25.6"/>
      <point x="270.93" y="32.6"/>
    </contour>
  </outline>
</glyph>
<glyph name="question" format="2">
  <advance width="421.82"/>
  <unicode hex="003F"/>
  <outline>
    <contour>
      <point x="176.026" y="344.88" type="line"/>
      <point x="262.93549190096" y="384.5917919696835"/>
      <point x="329.712" y="432.09"/>
      <point x="329.712" y="559.28" type="curve" smooth="yes"/>
      <point x="329.712" y="661.75"/>
      <point x="281.06" y="711.96"/>
      <point x="208.228" y="711.96" type="curve" smooth="yes"/>
      <point x="142.874" y="711.96"/>
      <point x="102.22200000000001" y="676.24"/>
      <point x="80.028" y="638.94" type="curve"/>
      <point x="80.94" y="651.19"/>
      <point x="78.61" y="667.56"/>
      <point x="99.282" y="672.56" type="curve"/>
      <point x="99.282" y="585.96" type="line"/>
      <point x="55.464" y="585.96" type="line"/>
      <point x="55.464" y="667.19" type="line"/>
      <point x="80.254" y="695.28"/>
      <point x="131.594" y="739.86"/>
      <point x="208.46" y="739.86" type="curve" smooth="yes"/>
      <point x="307.32" y="739.86"/>
      <point x="370.71799999999996" y="671.28"/>
      <point x="370.71799999999996" y="559.28" type="curve" smooth="yes"/>
      <point x="370.71799999999996" y="423.44"/>
      <point x="284.8645598456" y="359.574537016866"/>
      <point x="208.594" y="324.79" type="curve"/>
      <point x="208.594" y="191.46" type="line"/>
      <point x="176.026" y="191.46" type="line"/>
    </contour>
    <component base="period" xOffset="109.178" yOffset="0.07"/>
  </outline>
</glyph>
<glyph name="underscore" format="2">
  <advance width="386.6"/>
  <unicode hex="005F"/>
  <outline>
    <contour>
      <point x="-3.9" y="-111.05" type="line"/>
      <point x="-3.9" y="-138.95" type="line"/>
      <point x="391.05" y="-138.95" type="line"/>
      <point x="391.05" y="-111.05" type="line"/>
    </contour>
  </outline>
</glyph>
<glyph name="h" format="2">
  <advance width="490"/>
  <unicode hex="0068"/>
  <anchor x="255.49" y="755.0" name="top"/>
  <anchor x="246.01" y="0.0" name="bottom"/>
  <outline>
    <contour>
      <point x="468.576" y="0.0" type="line"/>
      <point x="468.576" y="25.74" type="line"/>
      <point x="466.664" y="25.74" type="line" smooth="yes"/>
      <point x="428.086" y="25.74"/>
      <point x="400.526" y="32.74"/>
      <point x="400.526" y="61.74" type="curve" smooth="yes"/>
      <point x="400.526" y="357.0" type="line" smooth="yes"/>
      <point x="400.526" y="468.0"/>
      <point x="354.88800000000003" y="518.0"/>
      <point x="279.558" y="518.0" type="curve" smooth="yes"/>
      <point x="218.554" y="518.0"/>
      <point x="174.018" y="482.0"/>
      <point x="130.468" y="409.0" type="curve"/>
      <point x="130.468" y="367.75" type="line"/>
      <point x="169.798" y="441.75"/>
      <point x="214.726" y="487.1"/>
      <point x="272.802" y="487.1" type="curve" smooth="yes"/>
      <point x="339.108" y="487.1"/>
      <point x="361.882" y="443.47"/>
      <point x="361.882" y="346.0" type="curve" smooth="yes"/>
      <point x="361.882" y="35.74" type="line" smooth="yes"/>
      <point x="361.882" y="28.74"/>
      <point x="325.682" y="25.74"/>
      <point x="303.182" y="25.74" type="curve" smooth="yes"/>
      <point x="301.27" y="25.74" type="line"/>
      <point x="301.27" y="0.0" type="line"/>
    </contour>
    <contour>
      <point x="135.096" y="735.0" type="line"/>
      <point x="28.792" y="735.0" type="line"/>
      <point x="28.792" y="711.47" type="line"/>
      <point x="36.752" y="709.47" type="line" smooth="yes"/>
      <point x="77.474" y="699.4"/>
      <point x="96.452" y="693.47"/>
      <point x="96.452" y="664.47" type="curve" smooth="yes"/>
      <point x="96.452" y="61.74" type="line" smooth="yes"/>
      <point x="96.452" y="32.74"/>
      <point x="68.892" y="25.74"/>
      <point x="30.242" y="25.74" type="curve" smooth="yes"/>
      <point x="28.792" y="25.74" type="line"/>
      <point x="28.792" y="0.0" type="line"/>
      <point x="195.796" y="0.0" type="line"/>
      <point x="195.796" y="25.74" type="line"/>
      <point x="193.346" y="25.74" type="line" smooth="yes"/>
      <point x="170.758" y="25.74"/>
      <point x="135.096" y="28.74"/>
      <point x="135.096" y="35.74" type="curve"/>
    </contour>
  </outline>
</glyph>
<glyph name="k" format="2">
  <advance width="478"/>
  <unicode hex="006B"/>
  <anchor x="239.66" y="0.0" name="bottom"/>
  <outline>
    <contour>
      <point x="455.878" y="0.0" type="line"/>
      <point x="455.878" y="28.95" type="line"/>
      <point x="454.428" y="28.95" type="line"/>
      <point x="426.636" y="28.95"/>
      <point x="402.904" y="36.02"/>
      <point x="378.18600000000004" y="66.95" type="curve" smooth="yes"/>
      <point x="201.74200000000002" y="289.81" type="line"/>
      <point x="201.888" y="273.56" type="line"/>
      <point x="341.972" y="430.05" type="line" smooth="yes"/>
      <point x="371.662" y="462.98"/>
      <point x="398.396" y="479.05"/>
      <point x="432.826" y="479.05" type="curve"/>
      <point x="434.36400000000003" y="479.05" type="line"/>
      <point x="434.36400000000003" y="508.0" type="line"/>
      <point x="255.084" y="508.0" type="line"/>
      <point x="255.084" y="479.05" type="line"/>
      <point x="258.534" y="479.05" type="line"/>
      <point x="285.092" y="479.05"/>
      <point x="326.192" y="476.05"/>
      <point x="326.192" y="461.05" type="curve"/>
      <point x="166.436" y="281.56" type="line"/>
      <point x="166.436" y="276.56" type="line"/>
      <point x="349.544" y="38.95" type="line"/>
      <point x="349.544" y="31.95"/>
      <point x="314.25600000000003" y="28.95"/>
      <point x="289.236" y="28.95" type="curve"/>
      <point x="284.728" y="28.95" type="line"/>
      <point x="284.728" y="0.0" type="line"/>
    </contour>
    <contour>
      <point x="135.936" y="735.0" type="line"/>
      <point x="28.792" y="735.0" type="line"/>
      <point x="28.792" y="706.12" type="line"/>
      <point x="37.592" y="704.12" type="line" smooth="yes"/>
      <point x="78.69200000000001" y="695.12"/>
      <point x="97.292" y="688.12"/>
      <point x="97.292" y="659.12" type="curve" smooth="yes"/>
      <point x="97.292" y="61.74" type="line" smooth="yes"/>
      <point x="97.292" y="32.74"/>
      <point x="69.892" y="25.74"/>
      <point x="31.242" y="25.74" type="curve"/>
      <point x="29.242" y="25.74" type="line"/>
      <point x="29.242" y="0.0" type="line"/>
      <point x="196.636" y="0.0" type="line"/>
      <point x="196.636" y="25.74" type="line"/>
      <point x="194.186" y="25.74" type="line" smooth="yes"/>
      <point x="172.136" y="25.74"/>
      <point x="135.936" y="28.74"/>
      <point x="135.936" y="35.74" type="curve" smooth="yes"/>
    </contour>
  </outline>
</glyph>
<glyph name="ordfeminine" format="2">
  <advance width="370.15"/>
  <unicode hex="00AA"/>
  <outline>
    <contour>
      <point x="254.71800000000002" y="553.44" type="line"/>
      <point x="117.454" y="537.51"/>
      <point x="45.896" y="504.79"/>
      <point x="45.896" y="416.72" type="curve" smooth="yes"/>
      <point x="45.896" y="348.93"/>
      <point x="87.084" y="310.0"/>
      <point x="146.784" y="310.0" type="curve" smooth="yes"/>
      <point x="202.264" y="310.0"/>
      <point x="239.624" y="358.56"/>
      <point x="255.32600000000002" y="405.0" type="curve"/>
      <point x="278.45" y="441.58"/>
      <point x="252.252" y="442.14"/>
      <point x="250.25" y="442.14" type="curve"/>
      <point x="230.664" y="381.09"/>
      <point x="200.976" y="335.39"/>
      <point x="152.21" y="335.39" type="curve" smooth="yes"/>
      <point x="110.012" y="335.39"/>
      <point x="84.468" y="367.95"/>
      <point x="84.468" y="416.65" type="curve" smooth="yes"/>
      <point x="84.468" y="478.0"/>
      <point x="133.56799999999998" y="518.56"/>
      <point x="254.18" y="527.63" type="curve"/>
    </contour>
    <contour>
      <point x="245.308" y="320.0" type="line"/>
      <point x="331.06600000000003" y="320.0" type="line"/>
      <point x="331.06600000000003" y="346.02" type="line"/>
      <point x="331.06600000000003" y="346.02" type="line"/>
      <point x="302.666" y="346.02"/>
      <point x="280.166" y="350.02"/>
      <point x="280.166" y="375.02" type="curve" smooth="yes"/>
      <point x="280.166" y="600.35" type="line" smooth="yes"/>
      <point x="280.166" y="692.21"/>
      <point x="229.076" y="720.0"/>
      <point x="172.26" y="720.0" type="curve" smooth="yes"/>
      <point x="121.632" y="720.0"/>
      <point x="81.416" y="696.0"/>
      <point x="63.816" y="667.93" type="curve"/>
      <point x="63.816" y="612.63" type="line"/>
      <point x="101.908" y="612.63" type="line"/>
      <point x="101.908" y="688.33" type="line"/>
      <point x="93.918" y="686.54"/>
      <point x="78.202" y="656.49"/>
      <point x="79.884" y="633.98" type="curve"/>
      <point x="94.584" y="670.4"/>
      <point x="127.044" y="694.47"/>
      <point x="171.636" y="694.47" type="curve" smooth="yes"/>
      <point x="216.082" y="694.47"/>
      <point x="242.466" y="674.82"/>
      <point x="242.466" y="596.49" type="curve" smooth="yes"/>
      <point x="242.466" y="391.23" type="line"/>
      <point x="245.308" y="389.23" type="line"/>
    </contour>
  </outline>
</glyph>
<glyph name="AE" format="2">
  <advance width="761.798"/>
  <unicode hex="00C6"/>
  <anchor x="513.648" y="741.0" name="top"/>
  <outline>
    <contour>
      <point x="-5.304" y="0.0" type="line"/>
      <point x="159.508" y="0.0" type="line"/>
      <point x="159.508" y="28.81" type="line"/>
      <point x="147.346" y="28.81" type="line" smooth="yes"/>
      <point x="116.49600000000001" y="28.81"/>
      <point x="79.29599999999999" y="35.81"/>
      <point x="79.29599999999999" y="46.81" type="curve"/>
      <point x="186.744" y="269.54" type="line"/>
      <point x="391.82" y="269.54" type="line"/>
      <point x="391.82" y="38.81" type="line" smooth="yes"/>
      <point x="391.82" y="31.81"/>
      <point x="352.17" y="28.81"/>
      <point x="321.782" y="28.81" type="curve" smooth="yes"/>
      <point x="314.432" y="28.81" type="line"/>
      <point x="314.432" y="0.0" type="line"/>
      <point x="716.712" y="0.0" type="line"/>
      <point x="716.712" y="185.97" type="line"/>
      <point x="690.83" y="185.97" type="line"/>
      <point x="683.942" y="70.97" type="line" smooth="yes"/>
      <point x="681.492" y="34.97"/>
      <point x="652.092" y="27.97"/>
      <point x="582.592" y="27.97" type="curve" smooth="yes"/>
      <point x="430.768" y="27.97" type="line"/>
      <point x="430.768" y="350.98" type="line"/>
      <point x="626.028" y="347.19" type="line"/>
      <point x="626.028" y="380.95" type="line"/>
      <point x="430.768" y="377.16" type="line"/>
      <point x="430.768" y="682.03" type="line"/>
      <point x="559.1800000000001" y="682.03" type="line" smooth="yes"/>
      <point x="628.592" y="682.03"/>
      <point x="656.992" y="675.03"/>
      <point x="660.442" y="639.03" type="curve" smooth="yes"/>
      <point x="667.7919999999999" y="549.03" type="line"/>
      <point x="692.212" y="549.03" type="line"/>
      <point x="692.212" y="710.0" type="line"/>
      <point x="262.368" y="710.0" type="line"/>
      <point x="262.368" y="681.19" type="line"/>
      <point x="272.848" y="681.19" type="line" smooth="yes"/>
      <point x="314.556" y="681.19"/>
      <point x="345.134" y="674.19"/>
      <point x="346.352" y="656.54" type="curve"/>
      <point x="54.934" y="71.81" type="line" smooth="yes"/>
      <point x="37.494" y="37.88"/>
      <point x="25.636000000000003" y="28.81"/>
      <point x="-1.3159999999999998" y="28.81" type="curve" smooth="yes"/>
      <point x="-5.304" y="28.81" type="line"/>
    </contour>
    <contour>
      <point x="203.764" y="298.0" type="line"/>
      <point x="391.82" y="678.61" type="line"/>
      <point x="391.82" y="298.0" type="line"/>
    </contour>
  </outline>
</glyph>
<glyph name="Eth" format="2">
  <advance width="589.514"/>
  <unicode hex="00D0"/>
  <outline>
    <contour>
      <point x="36.2" y="369.23" type="line"/>
      <point x="351.4" y="369.23" type="line"/>
      <point x="351.4" y="340.77" type="line"/>
      <point x="36.2" y="340.77" type="line"/>
    </contour>
    <component base="D" xOffset="-49.764"/>
  </outline>
</glyph>
<glyph name="divide" format="2">
  <advance width="452.2"/>
  <unicode hex="00F7"/>
  <outline>
    <contour>
      <point x="262.594" y="175.0" type="curve" smooth="yes"/>
      <point x="262.594" y="200.3"/>
      <point x="247.558" y="215.74"/>
      <point x="226.1" y="215.74" type="curve" smooth="yes"/>
      <point x="204.482" y="215.74"/>
      <point x="189.606" y="200.3"/>
      <point x="189.606" y="175.0" type="curve" smooth="yes"/>
      <point x="189.606" y="149.63"/>
      <point x="204.482" y="134.19"/>
      <point x="226.1" y="134.19" type="curve" smooth="yes"/>
      <point x="247.558" y="134.19"/>
      <point x="262.594" y="149.63"/>
    </contour>
    <contour>
      <point x="262.594" y="509.21" type="curve" smooth="yes"/>
      <point x="262.594" y="534.51"/>
      <point x="247.558" y="549.95"/>
      <point x="226.1" y="549.95" type="curve" smooth="yes"/>
      <point x="204.482" y="549.95"/>
      <point x="189.606" y="534.51"/>
      <point x="189.606" y="509.21" type="curve" smooth="yes"/>
      <point x="189.606" y="483.77"/>
      <point x="204.482" y="468.4"/>
      <point x="226.1" y="468.4" type="curve" smooth="yes"/>
      <point x="247.558" y="468.4"/>
      <point x="262.594" y="483.77"/>
    </contour>
    <component base="minus" xOffset="-39.578"/>
  </outline>
</glyph>
<glyph name="eogonek" format="2">
  <advance width="417.86400000000003"/>
  <unicode hex="0119"/>
  <outline>
    <contour>
      <point x="294.692" y="16.67" type="line"/>
      <point x="231.448" y="-25.35"/>
      <point x="171.532" y="-68.44"/>
      <point x="171.532" y="-139.65" type="curve" smooth="yes"/>
      <point x="171.532" y="-197.72"/>
      <point x="206.514" y="-232.79"/>
      <point x="250.022" y="-232.79" type="curve" smooth="yes"/>
      <point x="285.948" y="-232.79"/>
      <point x="311.652" y="-210.58"/>
      <point x="332.92" y="-179.3" type="curve"/>
      <point x="316.43399999999997" y="-160.28" type="line"/>
      <point x="300.01" y="-184.05"/>
      <point x="282.874" y="-204.33"/>
      <point x="256.58" y="-204.33" type="curve" smooth="yes"/>
      <point x="231.428" y="-204.33"/>
      <point x="210.336" y="-181.84"/>
      <point x="210.336" y="-140.28" type="curve" smooth="yes"/>
      <point x="210.336" y="-69.44"/>
      <point x="271.826" y="-22.88"/>
      <point x="330.892" y="26.93" type="curve" smooth="yes"/>
      <point x="356.408" y="48.51"/>
      <point x="370.26800000000003" y="72.58"/>
      <point x="382.59000000000003" y="99.51" type="curve"/>
      <point x="360.102" y="121.18" type="line"/>
      <point x="336.674" y="66.62"/>
      <point x="297.576" y="15.969999999999999"/>
      <point x="226.57" y="15.969999999999999" type="curve" smooth="yes"/>
      <point x="141.718" y="15.969999999999999"/>
      <point x="76.076" y="100.67"/>
      <point x="76.076" y="248.93" type="curve" smooth="yes"/>
      <point x="76.076" y="398.19"/>
      <point x="135.978" y="489.89"/>
      <point x="217.434" y="489.89" type="curve" smooth="yes"/>
      <point x="300.73199999999997" y="489.89"/>
      <point x="339.206" y="415.12"/>
      <point x="342.714" y="265.0" type="curve"/>
      <point x="357.07" y="280.58" type="line"/>
      <point x="59.358000000000004" y="280.58" type="line"/>
      <point x="59.896" y="252.4" type="line"/>
      <point x="383.36" y="252.4" type="line"/>
      <point x="382.91" y="423.0"/>
      <point x="326.312" y="518.0"/>
      <point x="217.434" y="518.0" type="curve" smooth="yes"/>
      <point x="113.778" y="518.0"/>
      <point x="35.982" y="409.0"/>
      <point x="35.982" y="250.93" type="curve" smooth="yes"/>
      <point x="35.982" y="89.86"/>
      <point x="119.518" y="-12.14"/>
      <point x="226.338" y="-12.14" type="curve" smooth="yes"/>
      <point x="250.548" y="-12.14"/>
      <point x="272.382" y="-8.35"/>
      <point x="290.766" y="-1.7000000000000002" type="curve"/>
    </contour>
  </outline>
</glyph>
<glyph name="eng" format="2">
  <advance width="471.838"/>
  <unicode hex="014B"/>
  <outline>
    <contour>
      <point x="28.792" y="0.0" type="line"/>
      <point x="195.636" y="0.0" type="line"/>
      <point x="195.636" y="25.74" type="line"/>
      <point x="193.186" y="25.74" type="line" smooth="yes"/>
      <point x="170.686" y="25.74"/>
      <point x="134.936" y="28.74"/>
      <point x="134.936" y="35.74" type="curve" smooth="yes"/>
      <point x="134.936" y="398.49" type="line"/>
      <point x="133.76" y="388.09" type="line"/>
      <point x="133.76" y="508.0" type="line"/>
      <point x="28.792" y="508.0" type="line"/>
      <point x="28.792" y="484.47" type="line"/>
      <point x="36.592" y="482.47" type="line" smooth="yes"/>
      <point x="77.242" y="472.47"/>
      <point x="96.292" y="466.47"/>
      <point x="96.292" y="437.47" type="curve" smooth="yes"/>
      <point x="96.292" y="61.74" type="line" smooth="yes"/>
      <point x="96.292" y="32.74"/>
      <point x="68.892" y="25.74"/>
      <point x="30.242" y="25.74" type="curve" smooth="yes"/>
      <point x="28.792" y="25.74" type="line"/>
    </contour>
    <contour>
      <point x="400.454" y="357.0" type="line" smooth="yes"/>
      <point x="400.454" y="468.0"/>
      <point x="354.728" y="518.0"/>
      <point x="279.558" y="518.0" type="curve" smooth="yes"/>
      <point x="206.36" y="518.0"/>
      <point x="156.924" y="468.49"/>
      <point x="105.168" y="367.54" type="curve"/>
      <point x="115.552" y="336.12" type="line"/>
      <point x="158.94" y="429.4"/>
      <point x="207.768" y="487.1"/>
      <point x="272.73" y="487.1" type="curve" smooth="yes"/>
      <point x="338.948" y="487.1"/>
      <point x="361.81" y="443.47"/>
      <point x="361.81" y="346.0" type="curve"/>
      <point x="361.81" y="-77.1" type="line" smooth="yes"/>
      <point x="361.81" y="-173.96"/>
      <point x="329.51" y="-206.1"/>
      <point x="278.464" y="-206.1" type="curve" smooth="yes"/>
      <point x="249.63" y="-206.1"/>
      <point x="228.06" y="-196.82"/>
      <point x="209.46" y="-187.61" type="curve"/>
      <point x="209.46" y="-219.58" type="line"/>
      <point x="224.45" y="-228.79"/>
      <point x="247.124" y="-236.0"/>
      <point x="278.856" y="-236.0" type="curve" smooth="yes"/>
      <point x="338.242" y="-236.0"/>
      <point x="400.454" y="-204.7"/>
      <point x="400.454" y="-77.1" type="curve" smooth="yes"/>
    </contour>
  </outline>
</glyph>
<glyph name="Uogonek" format="2">
  <advance width="636.276"/>
  <unicode hex="0172"/>
  <outline>
    <contour>
      <point x="370.728" y="-232.79" type="curve" smooth="yes"/>
      <point x="406.566" y="-232.79"/>
      <point x="432.27" y="-210.58"/>
      <point x="454.0" y="-179.3" type="curve"/>
      <point x="437.514" y="-160.28" type="line"/>
      <point x="420.628" y="-184.05"/>
      <point x="403.492" y="-204.33"/>
      <point x="377.66" y="-204.33" type="curve" smooth="yes"/>
      <point x="352.508" y="-204.33"/>
      <point x="330.954" y="-181.84"/>
      <point x="330.954" y="-140.28" type="curve" smooth="yes"/>
      <point x="330.954" y="-72.98"/>
      <point x="377.356" y="-49.76"/>
      <point x="453.53999999999996" y="39.74" type="curve" smooth="yes"/>
      <point x="496.002" y="83.67"/>
      <point x="522.458" y="157.95"/>
      <point x="522.458" y="271.0" type="curve" smooth="yes"/>
      <point x="522.458" y="635.19" type="line" smooth="yes"/>
      <point x="522.458" y="669.19"/>
      <point x="551.396" y="681.19"/>
      <point x="590.958" y="681.19" type="curve" smooth="yes"/>
      <point x="599.846" y="681.19" type="line"/>
      <point x="599.846" y="710.0" type="line"/>
      <point x="414.144" y="710.0" type="line"/>
      <point x="414.144" y="681.19" type="line"/>
      <point x="421.406" y="681.19" type="line" smooth="yes"/>
      <point x="452.256" y="681.19"/>
      <point x="491.906" y="673.19"/>
      <point x="491.906" y="659.19" type="curve" smooth="yes"/>
      <point x="491.906" y="271.0" type="line" smooth="yes"/>
      <point x="491.906" y="87.46"/>
      <point x="418.466" y="21.55"/>
      <point x="322.526" y="21.55" type="curve" smooth="yes"/>
      <point x="227.122" y="21.55"/>
      <point x="152.926" y="84.25"/>
      <point x="152.926" y="271.0" type="curve" smooth="yes"/>
      <point x="152.926" y="671.19" type="line" smooth="yes"/>
      <point x="152.926" y="678.19"/>
      <point x="192.576" y="681.19"/>
      <point x="222.876" y="681.19" type="curve" smooth="yes"/>
      <point x="230.226" y="681.19" type="line"/>
      <point x="230.226" y="710.0" type="line"/>
      <point x="35.968" y="710.0" type="line"/>
      <point x="35.968" y="681.19" type="line"/>
      <point x="44.768" y="681.19" type="line" smooth="yes"/>
      <point x="84.418" y="681.19"/>
      <point x="113.73" y="674.19"/>
      <point x="113.73" y="645.19" type="curve" smooth="yes"/>
      <point x="113.73" y="271.0" type="line" smooth="yes"/>
      <point x="113.73" y="67.79"/>
      <point x="200.39600000000002" y="-10.0"/>
      <point x="318.682" y="-10.0" type="curve" smooth="yes"/>
      <point x="349.028" y="-10.0"/>
      <point x="378.516" y="-5.21"/>
      <point x="404.25" y="6.3" type="curve"/>
      <point x="409.12" y="18.25" type="line"/>
      <point x="347.51599999999996" y="-22.93"/>
      <point x="292.15" y="-70.58"/>
      <point x="292.15" y="-139.65" type="curve" smooth="yes"/>
      <point x="292.15" y="-197.72"/>
      <point x="327.22" y="-232.79"/>
    </contour>
  </outline>
</glyph>
<glyph name="oogonek" format="2">
  <advance width="459.25600000000003"/>
  <unicode hex="01EB"/>
  <outline>
    <contour>
      <point x="229.62800000000001" y="16.11" type="curve"/>
      <point x="135.76" y="16.11"/>
      <point x="77.30799999999999" y="108.81"/>
      <point x="77.30799999999999" y="253.0" type="curve" smooth="yes"/>
      <point x="77.30799999999999" y="394.12"/>
      <point x="135.76" y="489.89"/>
      <point x="229.62800000000001" y="489.89" type="curve" smooth="yes"/>
      <point x="323.408" y="489.89"/>
      <point x="381.86" y="394.12"/>
      <point x="381.86" y="253.0" type="curve" smooth="yes"/>
      <point x="381.86" y="107.81"/>
      <point x="323.408" y="16.11"/>
    </contour>
    <contour>
      <point x="264.234" y="-232.79" type="curve" smooth="yes"/>
      <point x="300.15999999999997" y="-232.79"/>
      <point x="326.326" y="-210.58"/>
      <point x="347.594" y="-179.3" type="curve"/>
      <point x="331.108" y="-160.28" type="line"/>
      <point x="314.684" y="-184.05"/>
      <point x="297.086" y="-204.33"/>
      <point x="271.254" y="-204.33" type="curve" smooth="yes"/>
      <point x="246.102" y="-204.33"/>
      <point x="225.01" y="-181.84"/>
      <point x="225.01" y="-140.28" type="curve" smooth="yes"/>
      <point x="225.01" y="-69.42"/>
      <point x="282.246" y="-37.84"/>
      <point x="353.86" y="40.16" type="curve" smooth="yes"/>
      <point x="397.802" y="86.6"/>
      <point x="423.18600000000004" y="161.16"/>
      <point x="423.18600000000004" y="253.0" type="curve" smooth="yes"/>
      <point x="423.18600000000004" y="409.0"/>
      <point x="342.1" y="518.0"/>
      <point x="229.62800000000001" y="518.0" type="curve" smooth="yes"/>
      <point x="117.068" y="518.0"/>
      <point x="35.982" y="410.0"/>
      <point x="35.982" y="253.0" type="curve" smooth="yes"/>
      <point x="35.982" y="95.0"/>
      <point x="117.068" y="-12.0"/>
      <point x="229.62800000000001" y="-12.0" type="curve"/>
      <point x="257.364" y="-12.0"/>
      <point x="283.112" y="-6.21"/>
      <point x="306.46799999999996" y="4.4399999999999995" type="curve"/>
      <point x="303.688" y="15.74" type="line"/>
      <point x="245.66" y="-24.14"/>
      <point x="186.20600000000002" y="-68.44"/>
      <point x="186.20600000000002" y="-139.65" type="curve" smooth="yes"/>
      <point x="186.20600000000002" y="-197.72"/>
      <point x="221.18800000000002" y="-232.79"/>
    </contour>
  </outline>
</glyph>
<glyph name="breve" format="2">
  <advance width="403.66200000000003"/>
  <unicode hex="02D8"/>
  <anchor x="203.65800000000002" y="538.4" name="_top"/>
  <outline>
    <contour>
      <point x="203.65800000000002" y="595.05" type="curve" smooth="yes"/>
      <point x="147.304" y="595.05"/>
      <point x="108.016" y="644.05"/>
      <point x="104.116" y="736.0" type="curve"/>
      <point x="130.768" y="736.0" type="line"/>
      <point x="137.798" y="661.58"/>
      <point x="163.284" y="636.23"/>
      <point x="204.89000000000001" y="636.23" type="curve" smooth="yes"/>
      <point x="245.36599999999999" y="636.23"/>
      <point x="271.91" y="661.58"/>
      <point x="278.94" y="736.0" type="curve"/>
      <point x="303.75" y="736.0" type="line"/>
      <point x="299.85" y="644.05"/>
      <point x="260.562" y="595.05"/>
    </contour>
  </outline>
</glyph>
<glyph name="dotaccent" format="2">
  <advance width="403.66200000000003"/>
  <unicode hex="02D9"/>
  <anchor x="201.6" y="526.0" name="_top"/>
  <outline>
    <contour>
      <point x="202.44" y="659.66" type="curve" smooth="yes"/>
      <point x="222.608" y="659.66"/>
      <point x="237.48399999999998" y="673.03"/>
      <point x="237.48399999999998" y="698.19" type="curve" smooth="yes"/>
      <point x="237.48399999999998" y="723.42"/>
      <point x="222.608" y="736.79"/>
      <point x="202.44" y="736.79" type="curve" smooth="yes"/>
      <point x="182.36" y="736.79"/>
      <point x="167.484" y="723.42"/>
      <point x="167.484" y="698.19" type="curve" smooth="yes"/>
      <point x="167.484" y="673.03"/>
      <point x="182.36" y="659.66"/>
    </contour>
  </outline>
</glyph>
<glyph name="ring" format="2">
  <advance width="403.2"/>
  <unicode hex="02DA"/>
  <anchor x="201.6" y="526.0" name="_top"/>
  <outline>
    <contour>
      <point x="151.946" y="677.49" type="curve" smooth="yes"/>
      <point x="151.946" y="720.56"/>
      <point x="174.142" y="742.63"/>
      <point x="201.6" y="742.63" type="curve" smooth="yes"/>
      <point x="229.608" y="742.63"/>
      <point x="251.804" y="720.56"/>
      <point x="251.804" y="677.49" type="curve" smooth="yes"/>
      <point x="251.804" y="634.42"/>
      <point x="229.608" y="612.35"/>
      <point x="201.6" y="612.35" type="curve" smooth="yes"/>
      <point x="174.142" y="612.35"/>
      <point x="151.946" y="634.42"/>
    </contour>
    <contour>
      <point x="285.078" y="677.49" type="curve" smooth="yes"/>
      <point x="285.078" y="735.21"/>
      <point x="248.006" y="768.0"/>
      <point x="201.6" y="768.0" type="curve" smooth="yes"/>
      <point x="155.744" y="768.0"/>
      <point x="118.672" y="735.21"/>
      <point x="118.672" y="677.49" type="curve" smooth="yes"/>
      <point x="118.672" y="619.77"/>
      <point x="156.584" y="586.98"/>
      <point x="201.6" y="586.98" type="curve" smooth="yes"/>
      <point x="247.166" y="586.98"/>
      <point x="285.078" y="619.77"/>
    </contour>
  </outline>
</glyph>
<glyph name="hungarumlaut" format="2">
  <advance width="403.75"/>
  <unicode hex="02DD"/>
  <anchor x="185.934" y="525.0" name="_top"/>
  <outline>
    <contour>
      <point x="139.072" y="703.79" type="curve" smooth="yes"/>
      <point x="114.226" y="593.49" type="line"/>
      <point x="114.226" y="576.7" type="line"/>
      <point x="129.566" y="576.7" type="line"/>
      <point x="179.626" y="685.61" type="line" smooth="yes"/>
      <point x="187.382" y="700.05"/>
      <point x="194.95" y="714.84"/>
      <point x="194.95" y="728.56" type="curve" smooth="yes"/>
      <point x="194.95" y="745.21"/>
      <point x="185.366" y="753.65"/>
      <point x="172.708" y="753.65" type="curve" smooth="yes"/>
      <point x="153.876" y="753.65"/>
      <point x="146.35" y="734.3"/>
    </contour>
    <contour>
      <point x="246.836" y="703.79" type="curve" smooth="yes"/>
      <point x="221.902" y="593.49" type="line"/>
      <point x="221.902" y="576.7" type="line"/>
      <point x="237.792" y="576.7" type="line"/>
      <point x="287.852" y="685.61" type="line" smooth="yes"/>
      <point x="295.058" y="700.05"/>
      <point x="303.176" y="714.84"/>
      <point x="303.176" y="728.56" type="curve" smooth="yes"/>
      <point x="303.176" y="745.21"/>
      <point x="293.13" y="753.65"/>
      <point x="280.384" y="753.65" type="curve" smooth="yes"/>
      <point x="261.552" y="753.65"/>
      <point x="254.026" y="734.3"/>
    </contour>
  </outline>
</glyph>
<glyph name="mu" format="2">
  <advance width="462.856"/>
  <unicode hex="03BC"/>
  <outline>
    <contour>
      <point x="392.174" y="-10.0" type="curve" smooth="yes"/>
      <point x="432.36199999999997" y="-10.0"/>
      <point x="454.5" y="26.49"/>
      <point x="467.694" y="64.0" type="curve"/>
      <point x="448.12" y="78.88" type="line"/>
      <point x="436.55" y="48.67"/>
      <point x="421.952" y="17.97"/>
      <point x="395.64" y="17.97" type="curve" smooth="yes"/>
      <point x="376.52" y="17.97"/>
      <point x="363.284" y="28.9"/>
      <point x="363.284" y="65.11" type="curve" smooth="yes"/>
      <point x="363.284" y="508.0" type="line"/>
      <point x="324.64" y="508.0" type="line"/>
      <point x="324.64" y="108.07" type="line"/>
      <point x="325.816" y="68.32" type="line" smooth="yes"/>
      <point x="325.584" y="18.37"/>
      <point x="348.826" y="-10.0"/>
    </contour>
    <contour>
      <point x="74.158" y="103.07" type="curve"/>
      <point x="88.264" y="18.14"/>
      <point x="126.20400000000001" y="-9.93"/>
      <point x="183.65800000000002" y="-9.93" type="curve" smooth="yes"/>
      <point x="253.592" y="-9.93"/>
      <point x="303.044" y="39.65"/>
      <point x="354.728" y="140.53" type="curve"/>
      <point x="344.344" y="171.88" type="line"/>
      <point x="301.418" y="78.67"/>
      <point x="253.2" y="20.97"/>
      <point x="189.488" y="20.97" type="curve" smooth="yes"/>
      <point x="124.324" y="20.97"/>
      <point x="101.21600000000001" y="64.39"/>
      <point x="101.21600000000001" y="160.39" type="curve" smooth="yes"/>
      <point x="101.21600000000001" y="508.0" type="line"/>
      <point x="62.572" y="508.0" type="line"/>
      <point x="62.572" y="-250.0" type="line"/>
      <point x="104.364" y="-250.0" type="line"/>
      <point x="104.364" y="-116.0"/>
      <point x="87.368" y="-36.0"/>
      <point x="80.23400000000001" y="146.0" type="curve"/>
      <point x="76.566" y="157.0"/>
      <point x="72.652" y="145.12"/>
    </contour>
  </outline>
</glyph>
<glyph name="endash" format="2">
  <advance width="477.73199999999997"/>
  <unicode hex="2013"/>
  <outline>
    <contour>
      <point x="57.816" y="328.95" type="line"/>
      <point x="57.816" y="301.05" type="line"/>
      <point x="420.004" y="301.05" type="line"/>
      <point x="420.004" y="328.95" type="line"/>
    </contour>
  </outline>
</glyph>
<glyph name="guilsinglleft" format="2">
  <advance width="233.95600000000002"/>
  <unicode hex="2039"/>
  <outline>
    <contour>
      <point x="81.43" y="250.45" type="line"/>
      <point x="183.684" y="455.0" type="line"/>
      <point x="158.65800000000002" y="455.0" type="line"/>
      <point x="50.822" y="281.79" type="line"/>
      <point x="50.822" y="248.21" type="line"/>
      <point x="158.65800000000002" y="75.0" type="line"/>
      <point x="183.684" y="75.0" type="line"/>
      <point x="81.59" y="277.69" type="line"/>
    </contour>
  </outline>
</glyph>
<glyph name="peso" format="2">
  <advance width="452.2"/>
  <unicode hex="20B1"/>
  <outline>
    <contour>
      <point x="6.644" y="0.0" type="line"/>
      <point x="202.796" y="0.0" type="line"/>
      <point x="202.796" y="28.81" type="line"/>
      <point x="181.832" y="28.81" type="line" smooth="yes"/>
      <point x="154.98399999999998" y="28.81"/>
      <point x="121.018" y="31.81"/>
      <point x="121.018" y="38.81" type="curve" smooth="yes"/>
      <point x="121.018" y="261.84" type="line"/>
      <point x="177.986" y="261.84" type="line" smooth="yes"/>
      <point x="312.43" y="261.84"/>
      <point x="380.20799999999997" y="354.63"/>
      <point x="380.20799999999997" y="489.42" type="curve" smooth="yes"/>
      <point x="380.20799999999997" y="624.21"/>
      <point x="315.49" y="710.0"/>
      <point x="182.348" y="710.0" type="curve" smooth="yes"/>
      <point x="6.644" y="710.0" type="line"/>
      <point x="6.644" y="681.19" type="line"/>
      <point x="15.444" y="681.19" type="line" smooth="yes"/>
      <point x="53.525999999999996" y="681.19"/>
      <point x="81.822" y="674.19"/>
      <point x="81.822" y="645.19" type="curve" smooth="yes"/>
      <point x="81.822" y="64.81" type="line" smooth="yes"/>
      <point x="81.822" y="35.81"/>
      <point x="53.525999999999996" y="28.81"/>
      <point x="15.444" y="28.81" type="curve" smooth="yes"/>
      <point x="6.644" y="28.81" type="line"/>
    </contour>
    <contour>
      <point x="182.188" y="681.89" type="line" smooth="yes"/>
      <point x="291.552" y="681.89"/>
      <point x="339.738" y="611.47"/>
      <point x="339.738" y="488.42" type="curve" smooth="yes"/>
      <point x="339.738" y="368.58"/>
      <point x="292.392" y="290.09"/>
      <point x="177.826" y="290.09" type="curve" smooth="yes"/>
      <point x="121.018" y="290.09" type="line"/>
      <point x="121.018" y="681.89" type="line"/>
    </contour>
    <contour>
      <point x="6.644" y="502.86" type="line"/>
      <point x="6.644" y="474.4" type="line"/>
      <point x="99.52600000000001" y="474.4" type="line"/>
      <point x="105.952" y="474.4" type="line"/>
      <point x="356.558" y="474.4" type="line"/>
      <point x="364.084" y="474.4" type="line"/>
      <point x="446.866" y="474.4" type="line"/>
      <point x="446.866" y="502.86" type="line"/>
      <point x="368.0" y="502.86" type="line"/>
      <point x="355.774" y="502.86" type="line"/>
      <point x="108.836" y="502.86" type="line"/>
      <point x="100.918" y="502.86" type="line"/>
    </contour>
  </outline>
</glyph>
<glyph name="guarani" format="2">
  <advance width="451.822"/>
  <unicode hex="20B2"/>
  <outline>
    <contour>
      <point x="301.95" y="352.65" type="line"/>
      <point x="301.95" y="323.84" type="line"/>
      <point x="309.966" y="323.84" type="line" smooth="yes"/>
      <point x="338.277931133302" y="323.84"/>
      <point x="358.644" y="316.84"/>
      <point x="358.644" y="287.84" type="curve"/>
      <point x="393.852" y="287.84" type="line"/>
      <point x="393.852" y="316.84"/>
      <point x="412.930400000126" y="323.84"/>
      <point x="437.69" y="323.84" type="curve" smooth="yes"/>
      <point x="441.14" y="323.84" type="line"/>
      <point x="441.14" y="352.65" type="line"/>
    </contour>
    <contour>
      <point x="212.61599999999999" y="790.0" type="line"/>
      <point x="212.61599999999999" y="686.12" type="line"/>
      <point x="212.61599999999999" y="682.54" type="line"/>
      <point x="212.61599999999999" y="27.53" type="line"/>
      <point x="212.61599999999999" y="22.95" type="line"/>
      <point x="212.61599999999999" y="-120.0" type="line"/>
      <point x="244.602" y="-120.0" type="line"/>
      <point x="244.602" y="19.67" type="line"/>
      <point x="244.602" y="25.39" type="line"/>
      <point x="244.602" y="680.68" type="line"/>
      <point x="244.602" y="686.91" type="line"/>
      <point x="244.602" y="790.0" type="line"/>
    </contour>
    <contour>
      <point x="239.584" y="10.0" type="curve"/>
      <point x="311.90999999999997" y="10.0"/>
      <point x="368.51" y="57.07"/>
      <point x="393.852" y="105.21" type="curve"/>
      <point x="393.852" y="333.84" type="line"/>
      <point x="358.644" y="341.84" type="line"/>
      <point x="358.644" y="112.35" type="line"/>
      <point x="343.726" y="84.58"/>
      <point x="309.454" y="38.04"/>
      <point x="240.584" y="38.04" type="curve"/>
      <point x="132.672786885216" y="38.04"/>
      <point x="71.594" y="157.74"/>
      <point x="71.594" y="355.0" type="curve" smooth="yes"/>
      <point x="71.594" y="557.96"/>
      <point x="134.083673469376" y="671.96"/>
      <point x="245.122" y="671.96" type="curve"/>
      <point x="314.06600000000003" y="671.96"/>
      <point x="349.93600000000004" y="627.7"/>
      <point x="368.566" y="600.29" type="curve"/>
      <point x="377.96" y="595.63"/>
      <point x="376.53200000000004" y="632.98"/>
      <point x="347.584" y="640.33" type="curve"/>
      <point x="347.584" y="539.47" type="line"/>
      <point x="394.026" y="539.47" type="line"/>
      <point x="394.026" y="629.4" type="line"/>
      <point x="369.582" y="656.16"/>
      <point x="320.374" y="700.0"/>
      <point x="244.658" y="700.0" type="curve"/>
      <point x="113.468" y="700.0"/>
      <point x="29.716" y="574.12"/>
      <point x="29.716" y="355.0" type="curve" smooth="yes"/>
      <point x="29.716" y="146.86"/>
      <point x="110.57" y="10.0"/>
    </contour>
  </outline>
</glyph>
<glyph name="emptyset" format="2">
  <advance width="563.8"/>
  <unicode hex="2205"/>
  <outline>
    <contour>
      <point x="56.408" y="270.0" type="curve" smooth="yes"/>
      <point x="56.408" y="112.00242857142858"/>
      <point x="157.818" y="-6.79"/>
      <point x="281.9" y="-6.79" type="curve" smooth="yes"/>
      <point x="405.52" y="-6.79"/>
      <point x="507.392" y="112.00242857142858"/>
      <point x="507.392" y="270.0" type="curve" smooth="yes"/>
      <point x="507.392" y="427.9975714285714"/>
      <point x="405.52" y="546.79"/>
      <point x="281.9" y="546.79" type="curve" smooth="yes"/>
      <point x="157.818" y="546.79"/>
      <point x="56.408" y="427.9975714285714"/>
    </contour>
    <contour>
      <point x="505.606" y="579.58" type="line"/>
      <point x="36.416" y="-15.42" type="line"/>
      <point x="58.194" y="-39.58" type="line"/>
      <point x="527.384" y="555.42" type="line"/>
    </contour>
    <contour>
      <point x="281.9" y="27.81" type="curve" smooth="yes"/>
      <point x="174.766" y="27.81"/>
      <point x="91.132" y="127.1894918032787"/>
      <point x="91.132" y="270.0" type="curve" smooth="yes"/>
      <point x="91.132" y="411.8331024234649"/>
      <point x="177.216" y="513.19"/>
      <point x="281.9" y="513.19" type="curve" smooth="yes"/>
      <point x="390.324" y="513.19"/>
      <point x="472.668" y="413.8210293367437"/>
      <point x="472.668" y="270.0" type="curve" smooth="yes"/>
      <point x="472.668" y="129.17765163934425"/>
      <point x="387.496" y="27.81"/>
    </contour>
  </outline>
</glyph>
<glyph name="product" format="2">
  <advance width="570.594"/>
  <unicode hex="220F"/>
  <outline>
    <contour>
      <point x="36.2" y="710.0" type="line"/>
      <point x="36.2" y="681.19" type="line"/>
      <point x="45.0" y="681.19" type="line" smooth="yes"/>
      <point x="84.65" y="681.19"/>
      <point x="114.05" y="674.19"/>
      <point x="114.05" y="645.19" type="curve" smooth="yes"/>
      <point x="114.05" y="-158.19" type="line" smooth="yes"/>
      <point x="114.05" y="-187.19"/>
      <point x="84.65" y="-194.19"/>
      <point x="45.0" y="-194.19" type="curve" smooth="yes"/>
      <point x="36.2" y="-194.19" type="line"/>
      <point x="36.2" y="-223.0" type="line"/>
      <point x="229.834" y="-223.0" type="line"/>
      <point x="229.834" y="-194.19" type="line"/>
      <point x="222.484" y="-194.19" type="line" smooth="yes"/>
      <point x="192.416" y="-194.19"/>
      <point x="153.15800000000002" y="-191.19"/>
      <point x="153.15800000000002" y="-184.19" type="curve" smooth="yes"/>
      <point x="153.15800000000002" y="671.19" type="line" smooth="yes"/>
      <point x="153.15800000000002" y="678.19"/>
      <point x="192.808" y="681.19"/>
      <point x="223.196" y="681.19" type="curve" smooth="yes"/>
      <point x="347.486" y="681.19" type="line" smooth="yes"/>
      <point x="378.248" y="681.19"/>
      <point x="417.898" y="678.19"/>
      <point x="417.898" y="671.19" type="curve" smooth="yes"/>
      <point x="417.898" y="-184.19" type="line" smooth="yes"/>
      <point x="417.898" y="-191.19"/>
      <point x="378.8" y="-194.19"/>
      <point x="348.11" y="-194.19" type="curve" smooth="yes"/>
      <point x="340.76" y="-194.19" type="line"/>
      <point x="340.76" y="-223.0" type="line"/>
      <point x="534.394" y="-223.0" type="line"/>
      <point x="534.394" y="-194.19" type="line"/>
      <point x="525.594" y="-194.19" type="line" smooth="yes"/>
      <point x="485.944" y="-194.19"/>
      <point x="457.094" y="-187.19"/>
      <point x="457.094" y="-158.19" type="curve" smooth="yes"/>
      <point x="457.094" y="645.19" type="line" smooth="yes"/>
      <point x="457.094" y="674.19"/>
      <point x="485.944" y="681.19"/>
      <point x="525.594" y="681.19" type="curve" smooth="yes"/>
      <point x="534.394" y="681.19" type="line"/>
      <point x="534.394" y="710.0" type="line"/>
    </contour>
  </outline>
</glyph>
<glyph name="minus" format="2">
  <advance width="452.2"/>
  <unicode hex="2212"/>
  <outline>
    <contour>
      <point x="379.934" y="354.74" type="line"/>
      <point x="72.266" y="354.74" type="line"/>
      <point x="72.266" y="327.26" type="line"/>
      <point x="379.934" y="327.26" type="line"/>
    </contour>
  </outline>
</glyph>
<glyph name="uni25BE" format="2">
  <advance width="520.7"/>
  <unicode hex="25BE"/>
  <outline>
    <contour>
      <point x="44.55" y="464.0" type="line"/>
      <point x="259.85" y="91.0" type="line"/>
      <point x="476.7" y="464.0" type="line"/>
    </contour>
  </outline>
</glyph>
<glyph name="uni27F7" format="2">
  <advance width="1048.75"/>
  <unicode hex="27F7"/>
  <outline>
    <contour>
      <point x="819.75" y="324.0" type="line"/>
      <point x="747.8" y="192.0" type="line"/>
      <point x="755.6" y="179.0" type="line"/>
      <point x="1004.75" y="346.0" type="line"/>
      <point x="1004.75" y="360.0" type="line"/>
      <point x="755.6" y="527.0" type="line"/>
      <point x="747.8" y="514.0" type="line"/>
      <point x="819.75" y="382.0" type="line"/>
      <point x="229.55" y="382.0" type="line"/>
      <point x="300.95" y="514.0" type="line"/>
      <point x="293.15" y="527.0" type="line"/>
      <point x="44.55" y="360.0" type="line"/>
      <point x="44.55" y="346.0" type="line"/>
      <point x="293.15" y="179.0" type="line"/>
      <point x="300.95" y="192.0" type="line"/>
      <point x="229.55" y="324.0" type="line"/>
    </contour>
  </outline>
</glyph>
<glyph name="at.uc" format="2">
  <advance width="694.45"/>
  <outline>
    <contour>
      <point x="362.012" y="-47.31" type="curve" smooth="yes"/>
      <point x="190.364" y="-47.31"/>
      <point x="69.836" y="88.67"/>
      <point x="69.836" y="304.0" type="curve" smooth="yes"/>
      <point x="69.836" y="534.19"/>
      <point x="203.224" y="707.96"/>
      <point x="383.918" y="707.96" type="curve" smooth="yes"/>
      <point x="541.5740000000001" y="707.96"/>
      <point x="631.5" y="578.05"/>
      <point x="631.5" y="411.79" type="curve" smooth="yes"/>
      <point x="631.5" y="233.18"/>
      <point x="571.163461538636" y="142.55"/>
      <point x="510.48" y="142.55" type="curve" smooth="yes"/>
      <point x="467.07157746482596" y="142.55"/>
      <point x="447.8434098341" y="176.43905292806"/>
      <point x="457.264" y="248.79" type="curve" smooth="yes"/>
      <point x="497.452" y="537.79" type="line"/>
      <point x="475.324" y="537.79" type="line"/>
      <point x="451.968" y="469.7" type="line"/>
      <point x="447.342" y="463.63" type="line"/>
      <point x="413.144" y="207.95" type="line"/>
      <point x="415.434" y="204.02"/>
      <point x="416.058" y="209.51"/>
      <point x="417.058" y="212.79" type="curve"/>
      <point x="420.579848437498" y="159.372558069865"/>
      <point x="451.677749999946" y="122.65"/>
      <point x="506.55" y="122.65" type="curve" smooth="yes"/>
      <point x="585.049999999856" y="122.65"/>
      <point x="659.37" y="228.79"/>
      <point x="659.37" y="411.79" type="curve" smooth="yes"/>
      <point x="659.37" y="595.93"/>
      <point x="552.726" y="733.0"/>
      <point x="383.918" y="733.0" type="curve" smooth="yes"/>
      <point x="189.782" y="733.0"/>
      <point x="41.966" y="550.93"/>
      <point x="41.966" y="304.0" type="curve" smooth="yes"/>
      <point x="41.966" y="70.86"/>
      <point x="176.922" y="-73.42"/>
      <point x="362.012" y="-73.42" type="curve" smooth="yes"/>
      <point x="449.342" y="-73.42"/>
      <point x="524.528" y="-37.86"/>
      <point x="568.092" y="-4.37" type="curve"/>
      <point x="559.494" y="19.81" type="line"/>
      <point x="514.712" y="-13.75"/>
      <point x="447.27" y="-47.31"/>
    </contour>
    <contour>
      <point x="322.432" y="118.79" type="curve" smooth="yes"/>
      <point x="375.36400000000003" y="118.79"/>
      <point x="404.694" y="163.74"/>
      <point x="443.956" y="225.36" type="curve"/>
      <point x="438.082" y="258.78" type="line"/>
      <point x="400.47400000000005" y="191.9"/>
      <point x="370.666" y="144.25"/>
      <point x="323.288" y="144.25" type="curve" smooth="yes"/>
      <point x="274.348" y="144.25"/>
      <point x="248.662" y="191.6"/>
      <point x="248.662" y="291.35" type="curve" smooth="yes"/>
      <point x="248.662" y="399.77"/>
      <point x="299.284" y="518.4"/>
      <point x="371.884" y="518.4" type="curve" smooth="yes"/>
      <point x="414.432" y="518.4"/>
      <point x="441.006" y="491.75"/>
      <point x="456.98199999999997" y="401.33" type="curve"/>
      <point x="466.642" y="452.36" type="line"/>
      <point x="453.98400000000004" y="515.35"/>
      <point x="421.118" y="543.79"/>
      <point x="373.39" y="543.79" type="curve" smooth="yes"/>
      <point x="276.138" y="543.79"/>
      <point x="209.264" y="423.63"/>
      <point x="209.264" y="290.58" type="curve" smooth="yes"/>
      <point x="209.264" y="180.79"/>
      <point x="255.976" y="118.79"/>
    </contour>
  </outline>
</glyph>
<glyph name="breve_hook" format="2">
  <advance width="411.638"/>
  <anchor x="215.166" y="525.0" name="_top"/>
  <outline>
    <contour>
      <point x="126.75" y="833.28" type="line"/>
      <point x="132.098" y="870.14"/>
      <point x="156.44" y="907.49"/>
      <point x="210.006" y="907.49" type="curve" smooth="yes"/>
      <point x="260.06600000000003" y="907.49"/>
      <point x="285.64" y="882.49"/>
      <point x="285.64" y="841.7" type="curve" smooth="yes"/>
      <point x="285.64" y="795.05"/>
      <point x="247.744" y="769.56"/>
      <point x="198.54000000000002" y="766.7" type="curve"/>
      <point x="218.07" y="792.91" type="line"/>
      <point x="218.07" y="734.28" type="line"/>
      <point x="187.49200000000002" y="734.28" type="line"/>
      <point x="187.49200000000002" y="793.42" type="line"/>
      <point x="229.488" y="796.42"/>
      <point x="250.06" y="808.35"/>
      <point x="250.06" y="840.77" type="curve" smooth="yes"/>
      <point x="250.06" y="862.91"/>
      <point x="237.056" y="880.33"/>
      <point x="209.846" y="880.33" type="curve" smooth="yes"/>
      <point x="176.928" y="880.33"/>
      <point x="165.982" y="857.7"/>
      <point x="161.474" y="833.28" type="curve"/>
    </contour>
    <contour>
      <point x="203.65800000000002" y="595.05" type="curve" smooth="yes"/>
      <point x="147.304" y="595.05"/>
      <point x="108.016" y="644.05"/>
      <point x="104.116" y="736.0" type="curve"/>
      <point x="130.768" y="736.0" type="line"/>
      <point x="137.798" y="661.58"/>
      <point x="163.284" y="636.23"/>
      <point x="204.89000000000001" y="636.23" type="curve" smooth="yes"/>
      <point x="245.36599999999999" y="636.23"/>
      <point x="271.91" y="661.58"/>
      <point x="278.94" y="736.0" type="curve"/>
      <point x="303.75" y="736.0" type="line"/>
      <point x="299.85" y="644.05"/>
      <point x="260.562" y="595.05"/>
    </contour>
  </outline>
</glyph>
<glyph name="breve_hook.uc" format="2">
  <advance width="405.086"/>
  <anchor x="203.65800000000002" y="724.0" name="_top"/>
  <outline>
    <contour>
      <point x="125.924" y="984.0" type="line"/>
      <point x="130.81" y="1020.86"/>
      <point x="156.832" y="1058.21"/>
      <point x="208.71800000000002" y="1058.21" type="curve" smooth="yes"/>
      <point x="259.24" y="1058.21"/>
      <point x="284.814" y="1031.14"/>
      <point x="284.814" y="991.35" type="curve" smooth="yes"/>
      <point x="284.814" y="943.7"/>
      <point x="244.86" y="920.42"/>
      <point x="197.714" y="918.56" type="curve"/>
      <point x="217.244" y="944.77" type="line"/>
      <point x="217.244" y="888.35" type="line"/>
      <point x="186.666" y="888.35" type="line"/>
      <point x="186.666" y="945.28" type="line"/>
      <point x="225.764" y="947.28"/>
      <point x="249.14600000000002" y="957.0"/>
      <point x="249.14600000000002" y="991.49" type="curve" smooth="yes"/>
      <point x="249.14600000000002" y="1012.63"/>
      <point x="234.55" y="1031.05"/>
      <point x="208.558" y="1031.05" type="curve" smooth="yes"/>
      <point x="176.392" y="1031.05"/>
      <point x="165.156" y="1007.35"/>
      <point x="160.648" y="984.0" type="curve"/>
    </contour>
    <contour>
      <point x="203.65800000000002" y="759.0" type="curve" smooth="yes"/>
      <point x="139.434" y="759.0"/>
      <point x="100.912" y="806.49"/>
      <point x="96.158" y="886.28" type="curve"/>
      <point x="124.882" y="886.28" type="line"/>
      <point x="132.072" y="824.16"/>
      <point x="155.71800000000002" y="797.18"/>
      <point x="204.05" y="797.18" type="curve" smooth="yes"/>
      <point x="252.93200000000002" y="797.18"/>
      <point x="277.938" y="824.16"/>
      <point x="284.666" y="886.28" type="curve"/>
      <point x="311.548" y="886.28" type="line"/>
      <point x="306.794" y="806.49"/>
      <point x="268.432" y="759.0"/>
    </contour>
  </outline>
</glyph>
<glyph name="breve_tilde" format="2">
  <advance width="404.998"/>
  <anchor x="213.442" y="524.0" name="_top"/>
  <outline>
    <contour>
      <point x="251.834" y="775.77" type="curve" smooth="yes"/>
      <point x="290.05" y="775.77"/>
      <point x="310.378" y="811.28"/>
      <point x="325.296" y="872.65" type="curve"/>
      <point x="300.284" y="881.09" type="line"/>
      <point x="288.586" y="834.53"/>
      <point x="279.08799999999997" y="806.32"/>
      <point x="256.126" y="806.32" type="curve" smooth="yes"/>
      <point x="220.172" y="806.32"/>
      <point x="198.644" y="884.51"/>
      <point x="143.41" y="884.51" type="curve" smooth="yes"/>
      <point x="104.86" y="884.51"/>
      <point x="83.03999999999999" y="850.93"/>
      <point x="72.936" y="785.56" type="curve"/>
      <point x="97.86" y="775.98" type="line"/>
      <point x="105.89" y="826.61"/>
      <point x="115.01" y="853.89"/>
      <point x="139.568" y="853.89" type="curve" smooth="yes"/>
      <point x="174.36" y="853.89"/>
      <point x="193.75799999999998" y="775.77"/>
    </contour>
    <contour>
      <point x="204.37" y="594.98" type="curve" smooth="yes"/>
      <point x="148.016" y="594.98"/>
      <point x="108.64" y="639.84"/>
      <point x="104.74" y="722.14" type="curve"/>
      <point x="132.61" y="722.14" type="line"/>
      <point x="139.728" y="657.37"/>
      <point x="163.908" y="632.95"/>
      <point x="205.602" y="632.95" type="curve" smooth="yes"/>
      <point x="246.078" y="632.95"/>
      <point x="271.31600000000003" y="657.37"/>
      <point x="278.434" y="722.14" type="curve"/>
      <point x="304.374" y="722.14" type="line"/>
      <point x="300.474" y="639.84"/>
      <point x="261.186" y="594.98"/>
    </contour>
  </outline>
</glyph>
<glyph name="circumflex_acute.uc" format="2">
  <advance width="412.1"/>
  <anchor x="197.7" y="749.0" name="_top"/>
  <outline>
    <contour>
      <point x="340.11" y="921.62" type="curve" smooth="yes"/>
      <point x="302.574" y="846.32" type="line"/>
      <point x="302.574" y="832.74" type="line"/>
      <point x="315.392" y="832.74" type="line"/>
      <point x="372.13599999999997" y="904.84" type="line" smooth="yes"/>
      <point x="390.998" y="926.05"/>
      <point x="401.672" y="937.35"/>
      <point x="401.672" y="951.65" type="curve" smooth="yes"/>
      <point x="401.672" y="963.95"/>
      <point x="392.928" y="972.32"/>
      <point x="380.182" y="972.32" type="curve" smooth="yes"/>
      <point x="364.626" y="972.32"/>
      <point x="356.70799999999997" y="957.25"/>
    </contour>
    <component base="circumflex.uc" xOffset="-55.044"/>
  </outline>
</glyph>
<glyph name="f_f_k.alt" format="2">
  <advance width="1024.0"/>
  <outline>
    <contour>
      <point x="1002.212" y="0.0" type="line"/>
      <point x="1002.212" y="28.95" type="line"/>
      <point x="1000.674" y="28.95" type="line"/>
      <point x="972.4200000000001" y="28.95"/>
      <point x="949.15" y="36.02"/>
      <point x="923.97" y="66.95" type="curve" smooth="yes"/>
      <point x="747.614" y="289.81" type="line"/>
      <point x="748.134" y="273.56" type="line"/>
      <point x="888.2180000000001" y="430.05" type="line" smooth="yes"/>
      <point x="917.908" y="462.98"/>
      <point x="944.642" y="479.05"/>
      <point x="979.1600000000001" y="479.05" type="curve"/>
      <point x="980.61" y="479.05" type="line"/>
      <point x="980.61" y="508.0" type="line"/>
      <point x="801.418" y="508.0" type="line"/>
      <point x="801.418" y="479.05" type="line"/>
      <point x="804.868" y="479.05" type="line"/>
      <point x="830.876" y="479.05"/>
      <point x="871.976" y="476.05"/>
      <point x="871.976" y="461.05" type="curve"/>
      <point x="712.22" y="281.56" type="line"/>
      <point x="712.22" y="276.56" type="line"/>
      <point x="895.79" y="38.95" type="line"/>
      <point x="895.79" y="31.95"/>
      <point x="860.04" y="28.95"/>
      <point x="835.482" y="28.95" type="curve"/>
      <point x="830.9739999999999" y="28.95" type="line"/>
      <point x="830.9739999999999" y="0.0" type="line"/>
    </contour>
    <contour>
      <point x="28.792" y="508.0" type="line"/>
      <point x="28.792" y="483.1" type="line"/>
      <point x="349.116" y="483.1" type="line"/>
      <point x="349.116" y="508.0" type="line"/>
    </contour>
    <contour>
      <point x="293.878" y="508.0" type="line"/>
      <point x="293.878" y="483.1" type="line"/>
      <point x="544.09" y="483.1" type="line"/>
      <point x="544.09" y="508.0" type="line"/>
    </contour>
    <contour>
      <point x="575.576" y="0.0" type="line"/>
      <point x="742.4200000000001" y="0.0" type="line"/>
      <point x="742.4200000000001" y="28.95" type="line"/>
      <point x="739.97" y="28.95" type="line" smooth="yes"/>
      <point x="718.47" y="28.95"/>
      <point x="681.72" y="31.95"/>
      <point x="681.72" y="38.95" type="curve"/>
      <point x="681.72" y="735.0" type="line"/>
      <point x="598.1179999999999" y="735.0" type="line"/>
      <point x="643.076" y="703.98" type="line"/>
      <point x="643.076" y="35.74" type="line"/>
      <point x="643.076" y="28.74"/>
      <point x="606.876" y="25.74"/>
      <point x="584.376" y="25.74" type="curve" smooth="yes"/>
      <point x="575.576" y="25.74" type="line"/>
    </contour>
    <contour>
      <point x="416.634" y="35.74" type="curve"/>
      <point x="416.634" y="597.75" type="line" smooth="yes"/>
      <point x="416.634" y="696.54"/>
      <point x="455.284" y="723.82"/>
      <point x="529.7660000000001" y="723.82" type="curve" smooth="yes"/>
      <point x="578.0" y="723.82"/>
      <point x="623.8240000000001" y="708.96"/>
      <point x="661.01" y="676.5" type="curve"/>
      <point x="666.358" y="711.84" type="line"/>
      <point x="636.508" y="726.72"/>
      <point x="591.958" y="752.0"/>
      <point x="529.998" y="752.0" type="curve" smooth="yes"/>
      <point x="438.48" y="752.0"/>
      <point x="377.99" y="708.93"/>
      <point x="377.99" y="597.75" type="curve"/>
      <point x="377.99" y="35.74" type="line"/>
      <point x="377.99" y="28.74"/>
      <point x="345.634" y="25.74"/>
      <point x="302.31600000000003" y="25.74" type="curve" smooth="yes"/>
      <point x="298.24" y="25.74" type="line"/>
      <point x="298.24" y="0.0" type="line"/>
      <point x="502.486" y="0.0" type="line"/>
      <point x="502.486" y="25.74" type="line"/>
      <point x="492.148" y="25.74" type="line" smooth="yes"/>
      <point x="449.382" y="25.74"/>
      <point x="416.634" y="28.74"/>
    </contour>
    <contour>
      <point x="151.086" y="35.74" type="curve" smooth="yes"/>
      <point x="151.086" y="559.63" type="line" smooth="yes"/>
      <point x="151.086" y="673.31"/>
      <point x="205.56" y="703.82"/>
      <point x="279.774" y="703.82" type="curve" smooth="yes"/>
      <point x="332.62" y="703.82"/>
      <point x="375.154" y="686.1"/>
      <point x="401.93" y="639.1" type="curve"/>
      <point x="407.846" y="681.38"/>
      <point x="395.548" y="679.23"/>
      <point x="377.99" y="693.54" type="curve"/>
      <point x="377.99" y="570.75" type="line"/>
      <point x="414.79200000000003" y="620.75" type="line"/>
      <point x="414.79200000000003" y="681.63" type="line"/>
      <point x="393.454" y="707.63"/>
      <point x="349.192" y="732.0"/>
      <point x="279.774" y="732.0" type="curve" smooth="yes"/>
      <point x="181.87" y="732.0"/>
      <point x="112.44200000000001" y="688.4"/>
      <point x="112.44200000000001" y="559.63" type="curve" smooth="yes"/>
      <point x="112.44200000000001" y="61.74" type="line"/>
      <point x="112.44200000000001" y="32.74"/>
      <point x="86.042" y="25.74"/>
      <point x="41.492" y="25.74" type="curve" smooth="yes"/>
      <point x="32.692" y="25.74" type="line"/>
      <point x="32.692" y="0.0" type="line"/>
      <point x="235.44" y="0.0" type="line"/>
      <point x="235.44" y="25.74" type="line"/>
      <point x="225.976" y="25.74" type="line" smooth="yes"/>
      <point x="183.442" y="25.74"/>
      <point x="151.086" y="28.74"/>
    </contour>
  </outline>
</glyph>
<glyph name="f_l" format="2">
  <advance width="510.342"/>
  <outline>
    <contour>
      <point x="28.792" y="508.0" type="line"/>
      <point x="28.792" y="483.1" type="line"/>
      <point x="278.54200000000003" y="483.1" type="line"/>
      <point x="278.54200000000003" y="508.0" type="line"/>
    </contour>
    <contour>
      <point x="377.99" y="35.74" type="line"/>
      <point x="377.99" y="28.74"/>
      <point x="341.79" y="25.74"/>
      <point x="318.828" y="25.74" type="curve" smooth="yes"/>
      <point x="310.028" y="25.74" type="line"/>
      <point x="310.028" y="0.0" type="line"/>
      <point x="484.684" y="0.0" type="line"/>
      <point x="484.684" y="25.74" type="line"/>
      <point x="482.684" y="25.74" type="line" smooth="yes"/>
      <point x="444.034" y="25.74"/>
      <point x="416.634" y="32.74"/>
      <point x="416.634" y="61.74" type="curve"/>
      <point x="416.634" y="735.0" type="line"/>
      <point x="333.656" y="735.0" type="line"/>
      <point x="377.99" y="703.49" type="line"/>
    </contour>
    <contour>
      <point x="237.4" y="0.0" type="line"/>
      <point x="237.4" y="25.74" type="line"/>
      <point x="226.6" y="25.74" type="line" smooth="yes"/>
      <point x="183.811263157872" y="25.74"/>
      <point x="151.086" y="28.74"/>
      <point x="151.086" y="35.74" type="curve" smooth="yes"/>
      <point x="151.086" y="597.75" type="line" smooth="yes"/>
      <point x="151.086" y="696.54"/>
      <point x="190.198" y="723.82"/>
      <point x="264.218" y="723.82" type="curve" smooth="yes"/>
      <point x="312.452" y="723.82"/>
      <point x="358.276" y="708.96"/>
      <point x="395.924" y="676.5" type="curve"/>
      <point x="400.81" y="711.84" type="line"/>
      <point x="370.96" y="726.72"/>
      <point x="326.40999999999997" y="752.0"/>
      <point x="264.45" y="752.0" type="curve" smooth="yes"/>
      <point x="173.394" y="752.0"/>
      <point x="112.44200000000001" y="708.93"/>
      <point x="112.44200000000001" y="597.75" type="curve" smooth="yes"/>
      <point x="112.44200000000001" y="61.74" type="line"/>
      <point x="112.44200000000001" y="32.74"/>
      <point x="86.042" y="25.74"/>
      <point x="41.492" y="25.74" type="curve" smooth="yes"/>
      <point x="32.692" y="25.74" type="line"/>
      <point x="32.692" y="0.0" type="line"/>
    </contour>
  </outline>
</glyph>
<glyph name="five.lin" format="2">
  <advance width="452.2"/>
  <outline>
    <contour>
      <point x="224.588" y="-9.93" type="curve" smooth="yes"/>
      <point x="125.992" y="-9.93"/>
      <point x="72.69800000000001" y="46.3"/>
      <point x="40.936" y="130.86" type="curve"/>
      <point x="63.135999999999996" y="153.74" type="line"/>
      <point x="91.824" y="75.13"/>
      <point x="134.736" y="17.97"/>
      <point x="224.588" y="17.97" type="curve" smooth="yes"/>
      <point x="320.556" y="17.97"/>
      <point x="378.414" y="108.78985616438356"/>
      <point x="378.414" y="240.93" type="curve" smooth="yes"/>
      <point x="378.414" y="366.05"/>
      <point x="316.61400000000003" y="443.38"/>
      <point x="240.88400000000001" y="443.38" type="curve" smooth="yes"/>
      <point x="178.882" y="443.38"/>
      <point x="134.044" y="408.61"/>
      <point x="98.092" y="345.28" type="curve"/>
      <point x="73.37" y="345.28" type="line"/>
      <point x="73.37" y="710.0" type="line"/>
      <point x="384.078" y="710.0" type="line"/>
      <point x="373.39" y="675.8" type="line"/>
      <point x="90.188" y="675.8" type="line"/>
      <point x="103.384" y="690.0" type="line"/>
      <point x="103.384" y="370.58" type="line"/>
      <point x="100.934" y="360.58"/>
      <point x="94.162" y="351.51"/>
      <point x="87.61" y="362.81" type="curve"/>
      <point x="121.256" y="426.44"/>
      <point x="174.158" y="471.28"/>
      <point x="244.902" y="471.28" type="curve" smooth="yes"/>
      <point x="355.502" y="471.28"/>
      <point x="419.74" y="360.72"/>
      <point x="419.74" y="240.93" type="curve" smooth="yes"/>
      <point x="419.74" y="98.14231927710843"/>
      <point x="344.308" y="-9.93"/>
    </contour>
  </outline>
</glyph>
<glyph name="g.alt" format="2">
  <advance width="464.516"/>
  <outline>
    <contour>
      <point x="362.868" y="42.0" type="line"/>
      <point x="362.868" y="-123.33"/>
      <point x="307.45799999999997" y="-193.89"/>
      <point x="214.2" y="-193.89" type="curve" smooth="yes"/>
      <point x="146.15" y="-193.89"/>
      <point x="97.426" y="-164.03"/>
      <point x="69.592" y="-108.33" type="curve"/>
      <point x="69.474" y="-158.61"/>
      <point x="82.654" y="-157.23"/>
      <point x="93.428" y="-157.09" type="curve"/>
      <point x="93.428" y="-70.4" type="line"/>
      <point x="48.058" y="-70.4" type="line"/>
      <point x="48.058" y="-140.07" type="line"/>
      <point x="73.168" y="-185.07"/>
      <point x="142.74" y="-222.0"/>
      <point x="214.2" y="-222.0" type="curve" smooth="yes"/>
      <point x="330.674" y="-222.0"/>
      <point x="401.512" y="-128.0"/>
      <point x="401.512" y="43.0" type="curve"/>
      <point x="401.512" y="511.0" type="line"/>
      <point x="375.468" y="511.0" type="line"/>
      <point x="366.942" y="370.41" type="line"/>
      <point x="362.868" y="351.99" type="line"/>
    </contour>
    <contour>
      <point x="77.30799999999999" y="250.0" type="curve" smooth="yes"/>
      <point x="77.30799999999999" y="392.98"/>
      <point x="128.468" y="489.89"/>
      <point x="221.942" y="489.89" type="curve" smooth="yes"/>
      <point x="291.716" y="489.89"/>
      <point x="339.094" y="423.63"/>
      <point x="370.728" y="325.84" type="curve"/>
      <point x="389.302" y="346.77" type="line"/>
      <point x="349.372" y="455.44"/>
      <point x="303.23" y="518.0"/>
      <point x="219.49200000000002" y="518.0" type="curve" smooth="yes"/>
      <point x="110.166" y="518.0"/>
      <point x="35.982" y="407.93"/>
      <point x="35.982" y="250.0" type="curve" smooth="yes"/>
      <point x="35.982" y="92.93"/>
      <point x="102.76" y="-11.0"/>
      <point x="207.578" y="-11.0" type="curve" smooth="yes"/>
      <point x="294.748" y="-11.0"/>
      <point x="342.56" y="59.7"/>
      <point x="394.476" y="168.44" type="curve"/>
      <point x="378.8" y="195.79" type="line"/>
      <point x="335.658" y="91.44"/>
      <point x="284.252" y="17.11"/>
      <point x="212.478" y="17.11" type="curve" smooth="yes"/>
      <point x="123.134" y="17.11"/>
      <point x="77.30799999999999" y="106.67"/>
    </contour>
  </outline>
</glyph>
<glyph name="heart" format="2">
  <advance width="727.75"/>
  <outline>
    <contour>
      <point x="354.3" y="-10.0" type="line"/>
      <point x="162.95" y="273.0" type="line" smooth="yes"/>
      <point x="94.45" y="375.0"/>
      <point x="56.8" y="437.0"/>
      <point x="56.8" y="535.0" type="curve" smooth="yes"/>
      <point x="56.8" y="632.0"/>
      <point x="109.6" y="710.0"/>
      <point x="203.6" y="710.0" type="curve" smooth="yes"/>
      <point x="326.45" y="710.0"/>
      <point x="393.95" y="567.0"/>
      <point x="393.95" y="363.0" type="curve"/>
      <point x="333.25" y="363.0" type="line"/>
      <point x="333.25" y="567.0"/>
      <point x="401.3" y="710.0"/>
      <point x="524.15" y="710.0" type="curve" smooth="yes"/>
      <point x="617.6" y="710.0"/>
      <point x="670.95" y="632.0"/>
      <point x="670.95" y="535.0" type="curve" smooth="yes"/>
      <point x="670.95" y="437.0"/>
      <point x="633.3" y="375.0"/>
      <point x="564.25" y="273.0" type="curve" smooth="yes"/>
      <point x="372.9" y="-10.0" type="line"/>
    </contour>
  </outline>
</glyph>
<glyph name="hungarumlaut.uc" format="2">
  <advance width="403.75"/>
  <anchor x="191.008" y="694.0" name="_top"/>
  <outline>
    <contour>
      <point x="156.25" y="861.49" type="curve" smooth="yes"/>
      <point x="131.49" y="774.58" type="line"/>
      <point x="131.49" y="758.0" type="line"/>
      <point x="146.99" y="758.0" type="line"/>
      <point x="194.248" y="843.73" type="line" smooth="yes"/>
      <point x="205.168" y="857.89"/>
      <point x="214.824" y="873.82"/>
      <point x="214.824" y="887.05" type="curve" smooth="yes"/>
      <point x="214.824" y="902.42"/>
      <point x="204.848" y="910.93"/>
      <point x="191.35" y="910.93" type="curve" smooth="yes"/>
      <point x="174.57600000000002" y="910.93"/>
      <point x="166.89" y="895.86"/>
    </contour>
    <contour>
      <point x="252.318" y="861.49" type="curve" smooth="yes"/>
      <point x="227.096" y="774.58" type="line"/>
      <point x="227.096" y="758.0" type="line"/>
      <point x="242.596" y="758.0" type="line"/>
      <point x="289.854" y="843.73" type="line" smooth="yes"/>
      <point x="300.68600000000004" y="857.89"/>
      <point x="310.43" y="873.82"/>
      <point x="310.43" y="887.05" type="curve" smooth="yes"/>
      <point x="310.43" y="902.42"/>
      <point x="300.454" y="910.93"/>
      <point x="287.418" y="910.93" type="curve" smooth="yes"/>
      <point x="270.556" y="910.93"/>
      <point x="262.496" y="895.86"/>
    </contour>
  </outline>
</glyph>
<glyph name="liraTurkish" format="2">
  <advance width="452.578"/>
  <outline>
    <contour>
      <point x="31.284" y="374.48" type="line"/>
      <point x="31.284" y="346.02" type="line"/>
      <point x="350.498" y="524.3" type="line"/>
      <point x="350.498" y="552.76" type="line"/>
    </contour>
    <contour>
      <point x="31.284" y="209.48" type="line"/>
      <point x="31.284" y="181.02" type="line"/>
      <point x="350.498" y="359.3" type="line"/>
      <point x="350.498" y="387.76" type="line"/>
    </contour>
    <contour>
      <point x="218.126" y="28.11" type="curve" smooth="yes"/>
      <point x="147.46" y="28.11" type="line"/>
      <point x="147.46" y="645.19" type="line" smooth="yes"/>
      <point x="147.46" y="674.19"/>
      <point x="177.078" y="681.19"/>
      <point x="218.786" y="681.19" type="curve" smooth="yes"/>
      <point x="227.586" y="681.19" type="line"/>
      <point x="227.586" y="710.0" type="line"/>
      <point x="31.284" y="710.0" type="line"/>
      <point x="31.284" y="681.19" type="line"/>
      <point x="39.852" y="681.19" type="line" smooth="yes"/>
      <point x="79.414" y="681.19"/>
      <point x="108.352" y="674.19"/>
      <point x="108.352" y="645.19" type="curve" smooth="yes"/>
      <point x="108.352" y="64.81" type="line" smooth="yes"/>
      <point x="108.352" y="35.81"/>
      <point x="79.414" y="28.81"/>
      <point x="39.852" y="28.81" type="curve" smooth="yes"/>
      <point x="31.284" y="28.81" type="line"/>
      <point x="31.284" y="0.0" type="line"/>
      <point x="214.108" y="0.0" type="line" smooth="yes"/>
      <point x="359.892" y="0.0"/>
      <point x="434.524" y="102.42"/>
      <point x="441.874" y="268.51" type="curve"/>
      <point x="404.204" y="279.74" type="line"/>
      <point x="399.696" y="118.53"/>
      <point x="343.608" y="28.11"/>
    </contour>
  </outline>
</glyph>
<glyph name="literSign" format="2">
  <advance width="421.35"/>
  <outline>
    <contour>
      <point x="182.958" y="238.0" type="curve" smooth="yes"/>
      <point x="182.958" y="580.26"/>
      <point x="220.606" y="681.61"/>
      <point x="276.0" y="681.61" type="curve" smooth="yes"/>
      <point x="311.966" y="681.61"/>
      <point x="322.896" y="632.42"/>
      <point x="322.896" y="561.79" type="curve" smooth="yes"/>
      <point x="322.896" y="391.65"/>
      <point x="210.318653311848" y="281.659360904673"/>
      <point x="46.49" y="216.6" type="curve"/>
      <point x="53.552" y="191.0" type="line"/>
      <point x="224.986" y="254.58"/>
      <point x="357.682" y="395.35"/>
      <point x="357.682" y="561.79" type="curve" smooth="yes"/>
      <point x="357.682" y="637.51"/>
      <point x="335.37" y="710.0"/>
      <point x="276.32" y="710.0" type="curve" smooth="yes"/>
      <point x="195.13" y="710.0"/>
      <point x="142.968" y="580.0"/>
      <point x="142.968" y="238.0" type="curve" smooth="yes"/>
      <point x="142.968" y="55.21"/>
      <point x="183.63400000000001" y="-10.0"/>
      <point x="251.65800000000002" y="-10.0" type="curve" smooth="yes"/>
      <point x="311.31600000000003" y="-10.0"/>
      <point x="346.85" y="59.0"/>
      <point x="366.74" y="130.0" type="curve"/>
      <point x="345.092" y="144.58" type="line"/>
      <point x="328.522612235072" y="92.21027873811666"/>
      <point x="301.61400000000003" y="18.39"/>
      <point x="254.572" y="18.39" type="curve" smooth="yes"/>
      <point x="217.764" y="18.39"/>
      <point x="182.958" y="56.88"/>
    </contour>
  </outline>
</glyph>
<glyph name="one.lin" format="2">
  <advance width="452.2"/>
  <outline>
    <contour>
      <point x="269.986" y="61.6" type="curve" smooth="yes"/>
      <point x="269.986" y="710.0" type="line"/>
      <point x="245.0" y="710.0" type="line"/>
      <point x="217.368" y="657.93"/>
      <point x="160.798" y="636.0"/>
      <point x="89.122" y="634.0" type="curve"/>
      <point x="89.122" y="606.1" type="line"/>
      <point x="154.898" y="604.1"/>
      <point x="222.788" y="629.75"/>
      <point x="238.026" y="675.75" type="curve"/>
      <point x="241.926" y="688.75"/>
      <point x="242.59" y="697.45"/>
      <point x="230.79000000000002" y="675.45" type="curve"/>
      <point x="230.79000000000002" y="61.6" type="line" smooth="yes"/>
      <point x="230.79000000000002" y="32.6"/>
      <point x="198.49" y="25.6"/>
      <point x="146.14" y="25.6" type="curve" smooth="yes"/>
      <point x="98.328" y="25.6" type="line"/>
      <point x="98.328" y="0.0" type="line"/>
      <point x="398.794" y="0.0" type="line"/>
      <point x="398.794" y="25.6" type="line"/>
      <point x="362.986" y="25.6" type="line" smooth="yes"/>
      <point x="305.736" y="25.6"/>
      <point x="269.986" y="32.6"/>
    </contour>
  </outline>
</glyph>
<glyph name="peso.proportional" format="2">
  <advance width="498.804"/>
  <outline>
    <contour>
      <point x="36.592" y="0.0" type="line"/>
      <point x="237.288" y="0.0" type="line"/>
      <point x="237.288" y="28.81" type="line"/>
      <point x="215.7" y="28.81" type="line" smooth="yes"/>
      <point x="188.3" y="28.81"/>
      <point x="153.55" y="31.81"/>
      <point x="153.55" y="38.81" type="curve" smooth="yes"/>
      <point x="153.55" y="276.12" type="line"/>
      <point x="231.03" y="276.12" type="line" smooth="yes"/>
      <point x="366.348" y="276.12"/>
      <point x="435.91" y="365.84"/>
      <point x="435.91" y="496.56" type="curve" smooth="yes"/>
      <point x="435.91" y="627.28"/>
      <point x="369.496" y="710.0"/>
      <point x="235.018" y="710.0" type="curve" smooth="yes"/>
      <point x="36.592" y="710.0" type="line"/>
      <point x="36.592" y="681.19" type="line"/>
      <point x="45.391999999999996" y="681.19" type="line" smooth="yes"/>
      <point x="85.042" y="681.19"/>
      <point x="114.44200000000001" y="674.19"/>
      <point x="114.44200000000001" y="645.19" type="curve" smooth="yes"/>
      <point x="114.44200000000001" y="64.81" type="line" smooth="yes"/>
      <point x="114.44200000000001" y="35.81"/>
      <point x="85.042" y="28.81"/>
      <point x="45.391999999999996" y="28.81" type="curve" smooth="yes"/>
      <point x="36.592" y="28.81" type="line"/>
    </contour>
    <contour>
      <point x="234.858" y="681.89" type="line" smooth="yes"/>
      <point x="345.750011976016" y="681.89"/>
      <point x="395.048" y="614.54"/>
      <point x="395.048" y="495.56" type="curve" smooth="yes"/>
      <point x="395.048" y="379.79"/>
      <point x="346.132837209304" y="304.37"/>
      <point x="230.958" y="304.37" type="curve" smooth="yes"/>
      <point x="153.55" y="304.37" type="line"/>
      <point x="153.55" y="681.89" type="line"/>
    </contour>
    <contour>
      <point x="36.592" y="510.0" type="line"/>
      <point x="36.592" y="481.54" type="line"/>
      <point x="133.394" y="481.54" type="line"/>
      <point x="137.7" y="481.54" type="line"/>
      <point x="412.172" y="481.54" type="line"/>
      <point x="418.13" y="481.54" type="line"/>
      <point x="500.582" y="481.54" type="line"/>
      <point x="500.582" y="510.0" type="line"/>
      <point x="420.726" y="510.0" type="line"/>
      <point x="412.404" y="510.0" type="line"/>
      <point x="141.368" y="510.0" type="line"/>
      <point x="134.626" y="510.0" type="line"/>
    </contour>
  </outline>
</glyph>
<glyph name="ringhalfleft" format="2">
  <advance width="403.75"/>
  <anchor x="201.6" y="566.0" name="_top"/>
  <outline>
    <contour>
      <point x="201.92000000000002" y="612.35" type="line"/>
      <point x="174.142" y="612.35"/>
      <point x="151.946" y="634.42"/>
      <point x="151.946" y="677.49" type="curve" smooth="yes"/>
      <point x="151.946" y="720.56"/>
      <point x="174.142" y="742.63"/>
      <point x="201.92000000000002" y="742.63" type="curve"/>
      <point x="201.92000000000002" y="768.0" type="line"/>
      <point x="155.744" y="768.0"/>
      <point x="118.672" y="735.21"/>
      <point x="118.672" y="677.49" type="curve" smooth="yes"/>
      <point x="118.672" y="619.77"/>
      <point x="156.584" y="586.98"/>
      <point x="201.92000000000002" y="586.98" type="curve"/>
    </contour>
  </outline>
</glyph>
<glyph name="ruble.proportional" format="2">
  <advance width="496.168"/>
  <outline>
    <contour>
      <point x="50.782" y="374.3" type="line"/>
      <point x="270.666" y="374.3" type="line" smooth="yes"/>
      <point x="381.824" y="374.3"/>
      <point x="423.3" y="435.72"/>
      <point x="423.3" y="530.49" type="curve" smooth="yes"/>
      <point x="423.3" y="626.47"/>
      <point x="381.446" y="681.89"/>
      <point x="274.654" y="681.89" type="curve" smooth="yes"/>
      <point x="167.74" y="681.89" type="line"/>
      <point x="167.74" y="38.81" type="line" smooth="yes"/>
      <point x="167.74" y="31.81"/>
      <point x="202.49" y="28.81"/>
      <point x="229.89" y="28.81" type="curve" smooth="yes"/>
      <point x="251.478" y="28.81" type="line"/>
      <point x="251.478" y="0.0" type="line"/>
      <point x="50.782" y="0.0" type="line"/>
      <point x="50.782" y="28.81" type="line"/>
      <point x="59.67" y="28.81" type="line" smooth="yes"/>
      <point x="99.232" y="28.81"/>
      <point x="128.632" y="35.81"/>
      <point x="128.632" y="64.81" type="curve" smooth="yes"/>
      <point x="128.632" y="645.19" type="line" smooth="yes"/>
      <point x="128.632" y="674.19"/>
      <point x="99.232" y="681.19"/>
      <point x="59.67" y="681.19" type="curve" smooth="yes"/>
      <point x="50.782" y="681.19" type="line"/>
      <point x="50.782" y="710.0" type="line"/>
      <point x="274.726" y="710.0" type="line" smooth="yes"/>
      <point x="406.416" y="710.0"/>
      <point x="465.01800000000003" y="641.28"/>
      <point x="465.01800000000003" y="531.49" type="curve" smooth="yes"/>
      <point x="465.01800000000003" y="421.63"/>
      <point x="402.806" y="345.84"/>
      <point x="270.826" y="345.84" type="curve" smooth="yes"/>
      <point x="50.782" y="345.84" type="line"/>
    </contour>
    <contour>
      <point x="332.558" y="187.63" type="line"/>
      <point x="50.782" y="187.63" type="line"/>
      <point x="50.782" y="216.09" type="line"/>
      <point x="332.558" y="216.09" type="line"/>
    </contour>
  </outline>
</glyph>
<glyph name="rupeeIndian.proportional" format="2">
  <advance width="502.936"/>
  <outline>
    <contour>
      <point x="61.294" y="506.02" type="line"/>
      <point x="61.294" y="477.56" type="line"/>
      <point x="461.594" y="477.56" type="line"/>
      <point x="461.594" y="506.02" type="line"/>
    </contour>
    <contour>
      <point x="92.25200000000001" y="272.3" type="line"/>
      <point x="131.852" y="272.3" type="line" smooth="yes"/>
      <point x="269.882" y="272.3"/>
      <point x="350.736" y="361.37"/>
      <point x="350.736" y="495.79" type="curve" smooth="yes"/>
      <point x="350.736" y="592.35"/>
      <point x="306.17" y="667.98"/>
      <point x="207.788" y="685.77" type="curve"/>
      <point x="189.998" y="699.7"/>
      <point x="152.014" y="712.05"/>
      <point x="178.476" y="681.54" type="curve"/>
      <point x="461.594" y="681.54" type="line"/>
      <point x="461.594" y="710.0" type="line"/>
      <point x="61.294" y="710.0" type="line"/>
      <point x="61.294" y="676.54" type="line"/>
      <point x="143.188" y="676.54" type="line" smooth="yes"/>
      <point x="253.856" y="676.54"/>
      <point x="309.088" y="607.91"/>
      <point x="309.088" y="495.79" type="curve" smooth="yes"/>
      <point x="309.088" y="377.53"/>
      <point x="256.538" y="300.69"/>
      <point x="129.268" y="300.69" type="curve" smooth="yes"/>
      <point x="61.294" y="300.69" type="line"/>
      <point x="61.294" y="274.74" type="line"/>
      <point x="320.05" y="0.0" type="line"/>
      <point x="402.182" y="0.0" type="line"/>
      <point x="402.182" y="28.81" type="line"/>
      <point x="391.164" y="28.81" type="line" smooth="yes"/>
      <point x="357.98199999999997" y="28.81"/>
      <point x="338.948" y="36.81"/>
      <point x="318.61" y="57.88" type="curve" smooth="yes"/>
      <point x="90.776" y="293.32" type="line"/>
    </contour>
  </outline>
</glyph>
<glyph name="seven.old" format="2">
  <advance width="452.2"/>
  <outline>
    <contour>
      <point x="185.8" y="513.8" type="line" smooth="yes"/>
      <point x="116.3" y="513.8"/>
      <point x="88.45" y="506.8"/>
      <point x="85.0" y="470.8" type="curve" smooth="yes"/>
      <point x="77.65" y="380.8" type="line"/>
      <point x="53.160000000000004" y="380.8" type="line"/>
      <point x="53.160000000000004" y="548.0" type="line"/>
      <point x="424.01599999999996" y="548.0" type="line"/>
      <point x="424.01599999999996" y="513.73" type="line"/>
      <point x="322.608" y="345.73"/>
      <point x="230.638" y="178.93"/>
      <point x="208.62" y="-135.0" type="curve"/>
      <point x="166.524" y="-135.0" type="line"/>
      <point x="190.69" y="184.63"/>
      <point x="315.0" y="370.57"/>
      <point x="402.104" y="525.59" type="curve"/>
      <point x="408.846" y="513.8" type="line"/>
    </contour>
  </outline>
</glyph>
<glyph name="two.den" format="2">
  <advance width="261.85"/>
  <outline>
    <contour>
      <point x="152.308" y="26.11" type="line" smooth="yes"/>
      <point x="188.50799999999998" y="26.11"/>
      <point x="202.208" y="30.11"/>
      <point x="203.65800000000002" y="49.11" type="curve" smooth="yes"/>
      <point x="208.108" y="88.11" type="line"/>
      <point x="230.798" y="88.11" type="line"/>
      <point x="230.798" y="0.0" type="line"/>
      <point x="21.05" y="0.0" type="line"/>
      <point x="21.05" y="30.759999999999998" type="line"/>
      <point x="105.132" y="96.46"/>
      <point x="179.966" y="161.3611040607695"/>
      <point x="179.966" y="246.93" type="curve" smooth="yes"/>
      <point x="179.966" y="295.35"/>
      <point x="157.642" y="316.63"/>
      <point x="123.068" y="316.63" type="curve" smooth="yes"/>
      <point x="92.84" y="316.63"/>
      <point x="68.44200000000001" y="300.05"/>
      <point x="55.352000000000004" y="270.77" type="curve"/>
      <point x="55.424" y="291.84"/>
      <point x="63.614000000000004" y="304.35"/>
      <point x="66.632" y="304.28" type="curve"/>
      <point x="66.632" y="235.93" type="line"/>
      <point x="29.298000000000002" y="235.93" type="line"/>
      <point x="29.298000000000002" y="287.93" type="line"/>
      <point x="44.158" y="316.93"/>
      <point x="78.46000000000001" y="346.0"/>
      <point x="124.69200000000001" y="346.0" type="curve" smooth="yes"/>
      <point x="185.016" y="346.0"/>
      <point x="220.086" y="309.93"/>
      <point x="220.086" y="244.93" type="curve" smooth="yes"/>
      <point x="220.086" y="155.6763"/>
      <point x="125.69200000000001" y="71.74"/>
      <point x="45.0" y="19.67" type="curve"/>
      <point x="41.1" y="20.67"/>
      <point x="40.94" y="24.18"/>
      <point x="42.1" y="26.11" type="curve"/>
    </contour>
  </outline>
</glyph>
